Coordinates
version=1
nRows=22
nColumns=24
inDegrees=yes

Units are S.I. units (second, meters, Newtons, ...)
Angles are in degrees.

endheader
time	pelvis_tilt	pelvis_list	pelvis_rotation	pelvis_tx	pelvis_ty	pelvis_tz	hip_flexion_r	hip_adduction_r	hip_rotation_r	knee_angle_r	ankle_angle_r	subtalar_angle_r	mtp_angle_r	hip_flexion_l	hip_adduction_l	hip_rotation_l	knee_angle_l	ankle_angle_l	subtalar_angle_l	mtp_angle_l	lumbar_extension	lumbar_bending	lumbar_rotation
      2.47000000	    -21.10558171	      3.53840116	    359.92399291	     -0.25545382	      1.37508916	     -1.06184961	     43.90850972	     -2.53971571	      2.90565067	    -24.30786302	     -0.42590575	     -9.05899800	     14.47304948	     18.57025844	      8.31893345	      2.78673212	     -7.38743707	      3.54191439	     -3.49131306	     14.58909320	     26.87827348	      3.25920259	   -212.42752099
      2.47500000	    -21.10493869	      3.53928245	    360.11385268	     -0.25062622	      1.37456166	     -1.06192638	     43.60924929	     -2.71479448	      2.75624038	    -22.26956800	     -1.18646518	     -9.37758702	     14.45897338	     18.22673537	      8.38474944	      2.97494330	     -7.33752357	      3.78400567	     -3.40564431	     14.42564253	     26.89672832	      3.13624182	   -212.52916814
      2.48000000	    -21.10833766	      3.54859885	    360.31474821	     -0.24581505	      1.37398997	     -1.06200966	     43.29996109	     -2.90453302	      2.59637427	    -20.23033828	     -1.92960661	     -9.64319455	     14.47947648	     17.89586914	      8.46213724	      3.17870016	     -7.30362106	      4.02724026	     -3.33337566	     14.26823578	     26.91040187	      3.00111349	   -212.63936912
      2.48500000	    -21.12003618	      3.56334146	    360.52146041	     -0.24101508	      1.37337158	     -1.06207751	     42.98569888	     -3.09958387	      2.43397690	    -18.19388348	     -2.65460397	     -9.87138068	     14.54612585	     17.58185149	      8.54438252	      3.39324038	     -7.28583339	      4.27652151	     -3.27174903	     14.10463439	     26.93049353	      2.85226020	   -212.75273452
      2.49000000	    -21.10829607	      3.56995538	    360.73761160	     -0.23618626	      1.37276121	     -1.06216253	     42.61327618	     -3.29453243	      2.25217913	    -16.13245251	     -3.36864299	    -10.06213047	     14.68163012	     17.24096291	      8.62083778	      3.62797487	     -7.27047351	      4.52569024	     -3.22629238	     13.94664748	     26.92385755	      2.71617823	   -212.87497652
      2.49500000	    -21.10577934	      3.57005091	    360.96719340	     -0.23132606	      1.37211917	     -1.06225059	     42.22322477	     -3.48954851	      2.05776323	    -14.06081026	     -4.07821021	    -10.22075028	     14.89641780	     16.91394180	      8.69232009	      3.88067902	     -7.26928385	      4.77941071	     -3.18268173	     13.78840017	     26.93446200	      2.57692258	   -213.00170298
      2.50000000	    -21.06465910	      3.56163774	    361.20958765	     -0.22642137	      1.37149921	     -1.06235719	     41.75887792	     -3.68510567	      1.83481743	    -11.97721333	     -4.77276473	    -10.32488597	     15.17156902	     16.54176538	      8.75754357	      4.15455868	     -7.26835069	      5.03371028	     -3.15480479	     13.63241277	     26.89991373	      2.44665184	   -213.15242672
      2.50500000	    -20.99498684	      3.55482756	    361.46578853	     -0.22145656	      1.37088463	     -1.06246576	     41.23630531	     -3.88727803	      1.58703036	     -9.89719266	     -5.44655973	    -10.36942840	     15.51031062	     16.13364932	      8.82509481	      4.44757916	     -7.26848259	      5.28594768	     -3.13248120	     13.48054808	     26.83949509	      2.30784243	   -213.31130392
      2.51000000	    -20.91648230	      3.55288396	    361.73563830	     -0.21643785	      1.37023050	     -1.06256873	     40.69301254	     -4.09580130	      1.31542402	     -7.86179360	     -6.06349407	    -10.32462365	     15.86603189	     15.71132181	      8.89769098	      4.75992983	     -7.26703382	      5.52314218	     -3.12555327	     13.32402664	     26.77693913	      2.15198439	   -213.49100234
      2.51500000	    -20.81454295	      3.57040636	    362.01136480	     -0.21142834	      1.36955460	     -1.06265700	     40.13669814	     -4.31714694	      1.02233568	     -5.91383259	     -6.61682481	    -10.17204553	     16.23372042	     15.26954245	      8.98885342	      5.08731873	     -7.28130500	      5.77232804	     -3.13272061	     13.16712313	     26.67546872	      1.97473772	   -213.66641155
      2.52000000	    -20.75193909	      3.59972104	    362.29025778	     -0.20641167	      1.36877820	     -1.06272351	     39.64679121	     -4.53958617	      0.72493143	     -4.08554662	     -7.08298711	     -9.91652227	     16.58573898	     14.87878156	      9.09022477	      5.42564776	     -7.31535514	      6.02514733	     -3.15997551	     13.01017062	     26.62012250	      1.78307819	   -213.84138394
      2.52500000	    -20.67707070	      3.63217611	    362.56422668	     -0.20137376	      1.36798765	     -1.06276889	     39.16638195	     -4.75056970	      0.40712741	     -2.38356650	     -7.45136484	     -9.55495020	     16.89825467	     14.47660780	      9.18970909	      5.76483702	     -7.35795588	      6.28070861	     -3.19706019	     12.85004846	     26.55237831	      1.59462752	   -214.00776526
      2.53000000	    -20.60806158	      3.66742733	    362.82909668	     -0.19633512	      1.36717073	     -1.06277908	     38.72695192	     -4.94570880	      0.08586745	     -0.83284959	     -7.72018262	     -9.10432359	     17.18263206	     14.08703121	      9.28548170	      6.10445631	     -7.41424477	      6.53947099	     -3.24303464	     12.68204449	     26.48552662	      1.40929637	   -214.17120405
      2.53500000	    -20.52720661	      3.69306525	    363.08064879	     -0.19126162	      1.36636427	     -1.06274416	     38.30522710	     -5.10977224	     -0.24571268	      0.56395189	     -7.88777008	     -8.58524433	     17.41820819	     13.68424072	      9.36088657	      6.43512063	     -7.47302485	      6.79899496	     -3.28602978	     12.51558463	     26.40951779	      1.23773304	   -214.32887466
      2.54000000	    -20.45516987	      3.71160717	    363.31321156	     -0.18618155	      1.36554323	     -1.06268641	     37.93739205	     -5.24348570	     -0.57538904	      1.78149865	     -7.95131649	     -8.01611573	     17.60353105	     13.29699704	      9.42155126	      6.75233213	     -7.54331594	      7.05956178	     -3.33330302	     12.34853274	     26.34325351	      1.09741855	   -214.47319576
      2.54500000	    -20.47397030	      3.70234387	    363.54688420	     -0.18106557	      1.36463084	     -1.06259577	     37.71041039	     -5.33795046	     -0.88642645	      2.81125175	     -7.97518016	     -7.57653704	     17.66746935	     13.02101574	      9.45158142	      7.07714989	     -7.63728984	      7.32995735	     -3.37826625	     12.27478553	     26.40130386	      0.98013261	   -214.61850030
      2.55000000	    -20.31133121	      3.69896367	    363.72466348	     -0.17594773	      1.36395302	     -1.06243334	     37.32669458	     -5.39348570	     -1.22370836	      3.67330081	     -7.81940699	     -6.84984887	     17.80153319	     12.53447553	      9.46012801	      7.34604238	     -7.70322975	      7.56485384	     -3.42637044	     12.05055161	     26.22119703	      0.89072497	   -214.76730838
      2.55500000	    -20.23605979	      3.66129761	    363.89639262	     -0.17077484	      1.36320871	     -1.06225481	     37.07863576	     -5.40245585	     -1.53129878	      4.34677640	     -7.65281176	     -6.32239059	     17.82429069	     12.15347250	      9.43011217	      7.60957639	     -7.79063208	      7.82929815	     -3.42538693	     11.89407181	     26.17016527	      0.85155731	   -214.87513339
      2.56000000	    -20.12553724	      3.59788635	    364.03618646	     -0.16555262	      1.36252518	     -1.06203803	     36.83022786	     -5.35834013	     -1.82599702	      4.84549635	     -7.41919459	     -5.83726350	     17.79176688	     11.72964971	      9.35822516	      7.84476588	     -7.86708063	      8.09385061	     -3.41567380	     11.73590621	     26.08414742	      0.86495841	   -214.96180056
      2.56500000	    -20.01669463	      3.51123718	    364.15880127	     -0.16028981	      1.36188237	     -1.06179018	     36.61928534	     -5.27393158	     -2.10966200	      5.17402282	     -7.16218747	     -5.44544998	     17.71776379	     11.31006545	      9.25259950	      8.05932445	     -7.94518475	      8.34883812	     -3.38933592	     11.59118610	     26.00914272	      0.91481932	   -215.05948886
      2.57000000	    -19.90452431	      3.40931638	    364.25804107	     -0.15499222	      1.36126469	     -1.06152098	     36.44001458	     -5.15608056	     -2.36473201	      5.34062481	     -6.89723373	     -5.15628509	     17.59139258	     10.89044735	      9.12224491	      8.24608161	     -8.02875572	      8.59945440	     -3.34593274	     11.45397659	     25.93898503	      1.00335300	   -215.12636186
      2.57500000	    -19.77779850	      3.28662573	    364.34265202	     -0.14965551	      1.36069760	     -1.06123900	     36.27503759	     -5.00598832	     -2.60815261	      5.35538601	     -6.63559327	     -4.97190458	     17.43116836	     10.45581923	      8.96202872	      8.40764220	     -8.11168106	      8.84734278	     -3.28836979	     11.32723877	     25.85580738	      1.12752903	   -215.19517497
